HIERARCHY
ROOT Hips
{
	OFFSET 0.000000 0.000000 0.000000
	CHANNELS 6 Xposition Yposition Zposition Zrotation Yrotation Xrotation 
	JOINT LHipJoint
	{
		OFFSET 0.000000 0.000000 0.000000
		CHANNELS 3 Zrotation Yrotation Xrotation
		JOINT LeftUpLeg
		{
			OFFSET 1.363060 -1.794630 0.839290
			CHANNELS 3 Zrotation Yrotation Xrotation
			JOINT LeftLeg
			{
				OFFSET 2.448110 -6.726130 0.000000
				CHANNELS 3 Zrotation Yrotation Xrotation
				JOINT LeftFoot
				{
					OFFSET 2.562200 -7.039590 0.000000
					CHANNELS 3 Zrotation Yrotation Xrotation
					JOINT LeftToeBase
					{
						OFFSET 0.157640 -0.433110 2.322550
						CHANNELS 3 Zrotation Yrotation Xrotation
						End Site
						{
							OFFSET 0.000000 0.000000 0.000000
						}
					}
				}
			}
		}
	}
	JOINT RHipJoint
	{
		OFFSET 0.000000 0.000000 0.000000
		CHANNELS 3 Zrotation Yrotation Xrotation
		JOINT RightUpLeg
		{
			OFFSET -1.305520 -1.794630 0.839290
			CHANNELS 3 Zrotation Yrotation Xrotation
			JOINT RightLeg
			{
				OFFSET -2.542530 -6.985550 0.000000
				CHANNELS 3 Zrotation Yrotation Xrotation
				JOINT RightFoot
				{
					OFFSET -2.568260 -7.056230 0.000000
					CHANNELS 3 Zrotation Yrotation Xrotation
					JOINT RightToeBase
					{
						OFFSET -0.164730 -0.452590 2.363150
						CHANNELS 3 Zrotation Yrotation Xrotation
						End Site
						{
							OFFSET 0.000000 0.000000 0.000000
						}
					}
				}
			}
		}
	}
	JOINT LowerBack
	{
		OFFSET 0.000000 0.000000 0.000000
		CHANNELS 3 Zrotation Yrotation Xrotation
		JOINT Spine
		{
			OFFSET 0.028270 2.035590 -0.193380
			CHANNELS 3 Zrotation Yrotation Xrotation
			JOINT Spine1
			{
				OFFSET 0.056720 2.048850 -0.042750
				CHANNELS 3 Zrotation Yrotation Xrotation
				JOINT Neck
				{
					OFFSET 0.000000 0.000000 0.000000
					CHANNELS 3 Zrotation Yrotation Xrotation
					JOINT Neck1
					{
						OFFSET -0.054170 1.746240 0.172020
						CHANNELS 3 Zrotation Yrotation Xrotation
						JOINT Head
						{
							OFFSET 0.104070 1.761360 -0.123970
							CHANNELS 3 Zrotation Yrotation Xrotation
							End Site
							{
								OFFSET 0.000000 0.000000 0.000000
							}
						}
					}
				}
				JOINT LeftShoulder
				{
					OFFSET 0.000000 0.000000 0.000000
					CHANNELS 3 Zrotation Yrotation Xrotation
					JOINT LeftArm
					{
						OFFSET 3.362410 1.200890 -0.311210
						CHANNELS 3 Zrotation Yrotation Xrotation
						JOINT LeftForeArm
						{
							OFFSET 4.983000 -0.000000 -0.000000
							CHANNELS 3 Zrotation Yrotation Xrotation
							JOINT LeftHand
							{
								OFFSET 3.483560 -0.000000 -0.000000
								CHANNELS 3 Zrotation Yrotation Xrotation
								JOINT LeftFingerBase
								{
									OFFSET 0.000000 0.000000 0.000000
									CHANNELS 3 Zrotation Yrotation Xrotation
									JOINT LeftHandIndex1
									{
										OFFSET 0.715260 -0.000000 -0.000000
										CHANNELS 3 Zrotation Yrotation Xrotation
										End Site
										{
											OFFSET 0.000000 0.000000 0.000000
										}
									}
								}
								JOINT LThumb
								{
									OFFSET 0.000000 0.000000 0.000000
									CHANNELS 3 Zrotation Yrotation Xrotation
									End Site
									{
										OFFSET 0.000000 0.000000 0.000000
									}
								}
							}
						}
					}
				}
				JOINT RightShoulder
				{
					OFFSET 0.000000 0.000000 0.000000
					CHANNELS 3 Zrotation Yrotation Xrotation
					JOINT RightArm
					{
						OFFSET -3.136600 1.374050 -0.404650
						CHANNELS 3 Zrotation Yrotation Xrotation
						JOINT RightForeArm
						{
							OFFSET -5.241900 -0.000000 -0.000000
							CHANNELS 3 Zrotation Yrotation Xrotation
							JOINT RightHand
							{
								OFFSET -3.444170 -0.000000 -0.000000
								CHANNELS 3 Zrotation Yrotation Xrotation
								JOINT RightFingerBase
								{
									OFFSET 0.000000 0.000000 0.000000
									CHANNELS 3 Zrotation Yrotation Xrotation
									JOINT RightHandIndex1
									{
										OFFSET -0.622530 -0.000000 -0.000000
										CHANNELS 3 Zrotation Yrotation Xrotation
										End Site
										{
											OFFSET 0.000000 0.000000 0.000000
										}
									}
								}
								JOINT RThumb
								{
									OFFSET 0.000000 0.000000 0.000000
									CHANNELS 3 Zrotation Yrotation Xrotation
									End Site
									{
										OFFSET 0.000000 0.000000 0.000000
									}
								}
							}
						}
					}
				}
			}
		}
	}
}
MOTION
Frames: 8
Frame Time: 0.016667
0.098952 17.845961 0.098952 -1.784961 -13.847820 5.898470 -5.295601 22.429491 5.957019 -15.590395 -5.026304 -17.762138 -7.424718 -6.345058 -23.524037 1.964698 16.120124 33.754756 0.000000 0.000000 0.000000 3.552867 -37.738369 -5.746209 49.245167 19.162133 -10.975401 -31.015512 2.592826 40.937537 3.524331 0.654697 -10.383259 0.000000 0.000000 0.000000 -0.917360 3.870033 7.125512 5.511442 3.396215 8.171538 -3.015855 4.585049 -12.935914 4.651628 -1.107465 -6.746097 -2.425163 -0.255069 1.048659 0.000000 0.000000 0.000000 -4.145032 15.508745 10.499905 -68.163664 -4.236656 9.600385 -169.514419 -89.981628 -179.734922 4.928596 -11.235059 0.128737 4.970593 -11.218735 0.000000 0.000000 0.000000 0.000000 0.000000 0.000000 0.000000 -2.350408 -11.089866 8.367111 62.973948 2.519607 22.447079 14.557039 79.832232 0.402471 -1.086444 12.019808 0.198615 -1.108027 12.022345 0.000000 0.000000 0.000000 0.000000 0.000000 0.000000 0.000000 
0.107495 17.875754 0.257043 -1.507661 -13.907607 5.802913 -5.075444 22.546907 5.971628 -16.181442 -5.050879 -17.409528 -7.275374 -6.034267 -22.430289 1.629014 15.155739 31.622657 0.000000 0.000000 0.000000 3.162221 -37.545176 -5.226055 48.381760 19.504218 -11.399612 -30.452425 2.369729 41.711560 3.516790 0.741374 -10.864465 0.000000 0.000000 0.000000 -0.459268 3.813367 6.253610 4.145500 3.248128 9.951472 -2.585938 4.411479 -12.856723 5.084926 -1.126400 -7.548100 -2.465374 -0.253659 0.765204 0.000000 0.000000 0.000000 -3.591674 15.211582 10.197656 -68.500030 -4.817578 8.850309 -168.848048 -89.724519 -179.780346 5.267555 -11.390394 0.105459 5.317071 -11.370404 0.000000 0.000000 0.000000 0.000000 0.000000 0.000000 0.000000 -2.989052 -10.748372 8.424672 64.026173 3.212859 21.440085 16.143688 78.018279 0.418871 -0.909145 12.434478 0.206709 -0.930499 12.437625 0.000000 0.000000 0.000000 0.000000 0.000000 0.000000 0.000000 
0.118276 17.907366 0.414551 -1.232410 -13.951789 5.710905 -4.896679 22.648430 5.971711 -16.723626 -5.078954 -17.097291 -7.137159 -5.694465 -21.271601 1.330944 14.203019 29.516840 0.000000 0.000000 0.000000 2.784469 -37.326127 -4.695141 47.479059 19.836738 -11.857140 -29.882557 2.127709 42.437395 3.503735 0.806908 -11.268663 0.000000 0.000000 0.000000 0.028266 3.768582 5.380608 2.748507 3.138167 11.695262 -2.157958 4.232182 -12.737603 5.515731 -1.136549 -8.314827 -2.488241 -0.250863 0.477957 0.000000 0.000000 0.000000 -2.993155 14.904183 9.901294 -68.834968 -5.399380 8.081250 -168.180265 -89.469366 -179.827648 5.611479 -11.536546 0.081204 5.668801 -11.512628 0.000000 0.000000 0.000000 0.000000 0.000000 0.000000 0.000000 -3.667808 -10.416088 8.465171 65.110363 3.935832 20.347523 17.743002 76.089775 0.435131 -0.727576 12.839270 0.214756 -0.748359 12.843021 0.000000 0.000000 0.000000 0.000000 0.000000 0.000000 0.000000 
0.129963 17.939428 0.569776 -1.083455 -13.560249 5.426699 -4.301214 22.884028 5.931008 -17.468145 -5.275632 -16.760802 -7.236009 -5.198356 -19.280176 1.017447 12.877568 26.950376 0.000000 0.000000 0.000000 2.003978 -37.047577 -4.718721 46.649052 18.934756 -11.476345 -28.768947 1.323596 42.440977 3.449334 0.990793 -12.438717 0.000000 0.000000 0.000000 0.408021 3.648435 5.055681 2.085086 2.973804 12.864110 -2.140387 4.024686 -12.873654 5.701821 -1.111516 -8.727754 -2.361504 -0.238578 0.362393 0.000000 0.000000 0.000000 -2.780275 14.810221 9.675752 -68.866388 -5.650629 7.983046 -167.987315 -89.421154 -179.832166 5.667371 -11.535903 0.078890 5.725364 -11.511473 0.000000 0.000000 0.000000 0.000000 0.000000 0.000000 0.000000 -4.114939 -10.427799 8.529552 65.878860 4.302464 19.542545 18.994649 74.487943 0.442554 -0.574802 13.050325 0.218485 -0.594525 13.054492 0.000000 0.000000 0.000000 0.000000 0.000000 0.000000 0.000000 
0.143270 17.972448 0.723640 -0.952379 -13.114220 5.139391 -3.753848 23.098831 5.877552 -18.140171 -5.491691 -16.480438 -7.310245 -4.664255 -17.194679 0.746022 11.581224 24.460621 0.000000 0.000000 0.000000 1.234997 -36.687027 -4.746660 45.764961 17.985460 -11.084244 -27.599368 0.462518 42.362836 3.389448 1.139456 -13.563336 0.000000 0.000000 0.000000 0.806940 3.512531 4.736171 1.438908 2.804372 14.022912 -2.132817 3.799598 -12.999162 5.880705 -1.083844 -9.129499 -2.228514 -0.225472 0.250788 0.000000 0.000000 0.000000 -2.555860 14.705591 9.455128 -68.898329 -5.899796 7.883785 -167.798245 -89.373905 -179.836667 5.722206 -11.534363 0.076587 5.780862 -11.509426 0.000000 0.000000 0.000000 0.000000 0.000000 0.000000 0.000000 -4.576873 -10.452758 8.586477 66.658363 4.684929 18.682991 20.225861 72.808858 0.448991 -0.425389 13.248141 0.221737 -0.443934 13.252677 0.000000 0.000000 0.000000 0.000000 0.000000 0.000000 0.000000 
0.193710 18.031213 0.912065 -0.801583 -13.150415 5.087005 -4.325291 23.074738 6.208932 -17.835595 -5.617690 -16.730551 -7.057053 -4.309911 -16.176643 0.548576 10.863775 22.713215 0.000000 0.000000 0.000000 0.385697 -36.283597 -4.007793 44.599150 17.755107 -11.489180 -26.177602 -0.297711 42.322857 3.118047 1.466086 -14.105284 0.000000 0.000000 0.000000 2.423450 3.692808 3.357969 -0.669400 2.934210 16.805363 -1.829893 3.628194 -14.085207 5.640040 -1.046007 -9.109260 -2.100414 -0.214411 0.304728 0.000000 0.000000 0.000000 -2.646714 14.605995 9.334427 -68.592438 -5.890926 8.728434 -168.615197 -89.787916 -179.825449 5.713844 -11.788912 0.081939 5.774812 -11.763494 0.000000 0.000000 0.000000 0.000000 0.000000 0.000000 0.000000 -4.034120 -10.946060 8.162842 66.359227 4.566999 19.228929 19.450244 73.795421 0.463422 -0.517134 13.381227 0.228823 -0.536378 13.385738 0.000000 0.000000 0.000000 0.000000 0.000000 0.000000 0.000000 
0.246114 18.090454 1.099631 -0.633157 -13.153839 5.100345 -5.001504 22.992568 6.499017 -17.451954 -5.751243 -17.058286 -6.820810 -3.937641 -15.148042 0.378586 10.190902 21.045186 0.000000 0.000000 0.000000 -0.387417 -35.822196 -3.299458 43.348908 17.542935 -11.985720 -24.715089 -1.079416 42.234980 2.865589 1.750617 -14.584020 0.000000 0.000000 0.000000 4.081351 3.924522 2.137557 -2.847971 3.162194 18.997355 -1.568069 3.456892 -14.754249 5.166108 -0.922694 -8.622626 -1.662614 -0.169416 0.186415 0.000000 0.000000 0.000000 -2.650680 14.374549 9.242822 -68.291425 -5.941436 9.525792 10.525400 -89.771557 0.183177 5.705591 -12.048297 0.085953 5.769319 -12.022306 0.000000 0.000000 0.000000 0.000000 0.000000 0.000000 0.000000 -3.378135 -11.450553 7.714217 66.065277 4.459755 19.715832 18.608907 74.783602 0.474517 -0.624643 13.507400 0.234219 -0.645026 13.511794 0.000000 0.000000 0.000000 0.000000 0.000000 0.000000 0.000000 
0.296762 18.147718 1.283357 -0.525563 -13.239249 5.132107 -5.747407 22.815270 6.797839 -16.921598 -5.778883 -17.317068 -6.539052 -3.652147 -14.476856 0.254911 9.689793 19.666911 0.000000 0.000000 0.000000 -1.043469 -35.330865 -2.535214 41.956251 17.273644 -12.558414 -23.063739 -1.925244 41.987364 2.586617 2.139835 -15.242556 0.000000 0.000000 0.000000 5.642851 4.168179 0.873053 -4.778334 3.440674 21.253576 -1.370015 3.300014 -15.453009 4.891899 -0.835750 -8.423126 -1.362440 -0.137807 0.067889 0.000000 0.000000 0.000000 -2.681189 14.237849 9.142572 -68.091912 -6.109352 9.737351 10.436452 -89.706249 0.184371 5.731598 -12.113585 0.086451 5.796279 -12.087209 0.000000 0.000000 0.000000 0.000000 0.000000 0.000000 0.000000 -2.955571 -11.858723 7.381622 65.936585 4.430565 19.950247 18.221937 75.194785 0.482564 -0.678861 13.588066 0.238164 -0.699736 13.592423 0.000000 0.000000 0.000000 0.000000 0.000000 0.000000 0.000000 
